<?xml version="1.0" standalone="no"?><!DOCTYPE svg PUBLIC "-//W3C//DTD SVG 1.1//EN" "http://www.w3.org/Graphics/SVG/1.1/DTD/svg11.dtd"><svg t="1629822291113" class="icon" viewBox="0 0 1024 1024" version="1.1" xmlns="http://www.w3.org/2000/svg" p-id="17962" xmlns:xlink="http://www.w3.org/1999/xlink" width="200" height="200"><defs><style type="text/css"></style></defs><path d="M341.888 552.32c70.229333 0 126.976 57.258667 126.976 127.829333v130.688A127.402667 127.402667 0 0 1 341.888 938.666667H212.309333A127.402667 127.402667 0 0 1 85.333333 810.837333v-130.688c0-70.570667 56.746667-127.829333 126.976-127.829333z m469.845333 0c70.144 0 126.933333 57.301333 126.933334 127.829333v130.688C938.666667 881.365333 881.92 938.666667 811.733333 938.666667h-129.621333a127.402667 127.402667 0 0 1-126.976-127.829334v-130.688c0-70.570667 56.746667-127.829333 126.976-127.829333zM341.888 611.84H212.309333a67.84 67.84 0 0 0-67.413333 68.309333v130.688c0 37.802667 30.208 68.266667 67.413333 68.266667h129.578667a67.84 67.84 0 0 0 67.413333-68.266667v-130.688a67.84 67.84 0 0 0-67.413333-68.266666z m469.845333 0h-129.621333a67.84 67.84 0 0 0-67.413333 68.309333v130.688c0 37.802667 30.208 68.266667 67.413333 68.266667h129.621333c37.12 0 67.413333-30.464 67.413334-68.266667v-130.688a67.84 67.84 0 0 0-67.413334-68.266666z m0-526.506667C881.92 85.333333 938.666667 142.634667 938.666667 213.162667V343.893333c0 70.485333-56.789333 127.786667-126.933334 127.786667h-129.621333c-70.186667 0-126.976-57.301333-126.976-127.786667V213.162667A127.402667 127.402667 0 0 1 682.112 85.333333zM341.888 85.333333a127.402667 127.402667 0 0 1 126.976 127.829334V343.893333c0 70.485333-56.789333 127.786667-126.976 127.786667H212.309333C142.08 471.68 85.333333 414.378667 85.333333 343.893333V213.162667A127.402667 127.402667 0 0 1 212.309333 85.333333z m469.845333 59.52h-129.621333a67.84 67.84 0 0 0-67.413333 68.266667V343.893333c0 37.717333 30.208 68.266667 67.413333 68.266667h129.621333c37.12 0 67.413333-30.549333 67.413334-68.266667V213.162667c0-37.802667-30.293333-68.266667-67.413334-68.266667z m-469.845333 0H212.309333a67.84 67.84 0 0 0-67.413333 68.266667V343.893333c0 37.717333 30.250667 68.266667 67.413333 68.266667h129.578667c37.205333 0 67.413333-30.549333 67.413333-68.266667V213.162667c0-37.802667-30.208-68.266667-67.413333-68.266667z" fill="#200E32" p-id="17963"></path></svg>