<?xml version="1.0" standalone="no"?><!DOCTYPE svg PUBLIC "-//W3C//DTD SVG 1.1//EN" "http://www.w3.org/Graphics/SVG/1.1/DTD/svg11.dtd"><svg t="1629823063837" class="icon" viewBox="0 0 1024 1024" version="1.1" xmlns="http://www.w3.org/2000/svg" p-id="36062" xmlns:xlink="http://www.w3.org/1999/xlink" width="64" height="64"><defs><style type="text/css"></style></defs><path d="M511.750313 63.791885c80.997756 0 154.363693 32.787754 207.699436 86.123496l0 0c52.861952 52.816926 85.627193 125.979226 85.627193 206.976982 0 81.223906-32.765241 154.363693-85.627193 207.203132-9.755178 10.048867-20.277836 18.85544-31.04711 27.164686 49.653887 13.232372 93.438089 39.629579 128.937604 74.855872l0 0c52.341089 51.890834 85.129866 124.782981 85.129866 204.042139l0 55.30049c0 19.080567-15.672958 34.748409-34.753525 34.748409l-0.472767 0L156.280346 960.207092c-19.10308 0-34.752502-15.667841-34.752502-34.748409l0-0.477884 0-54.822606c0-79.259158 32.53909-152.150282 85.153402-204.042139 34.977629-35.700083 79.732949-61.623499 128.915092-74.855872-10.996448-8.580422-21.293979-17.116843-30.800493-27.164686-53.133128-52.839439-85.898369-125.979226-85.898369-207.203132 0-80.997756 32.765241-154.160055 85.898369-206.976982C357.612771 96.579639 431.249885 63.791885 511.750313 63.791885L511.750313 63.791885zM670.539806 198.351534 670.539806 198.351534c-40.622186-40.600697-96.421027-65.575508-158.789493-65.575508-61.894675 0-117.91762 24.974811-158.293189 65.575508-40.600697 40.619116-65.800635 96.620571-65.800635 158.540829 0 61.646012 25.199938 117.91762 65.800635 158.540829l0 0 0 0.248663c40.374546 40.352033 96.398514 65.552995 158.293189 65.552995 62.368466 0 117.91762-25.199938 158.518317-65.800635 40.623209-40.623209 65.823148-96.894817 65.823148-158.540829 0-61.920258-25.199938-117.921713-65.823148-158.540829L670.539806 198.352557 670.539806 198.351534zM613.274568 649.971351 613.274568 649.971351l-101.524255 0-101.04944 0c-60.674894 0-115.456568 24.952298-155.086148 65.100694-40.149419 39.629579-64.60439 94.659917-64.60439 155.086148l0 21.045315 642.451074 0 0-21.045315c0-60.426231-24.952298-115.456568-64.829518-155.086148l0-0.496304C728.753649 674.92365 673.971975 649.971351 613.274568 649.971351L613.274568 649.971351z" p-id="36063" fill="#d22222"></path></svg>